HIERARCHY
ROOT Bone-00
{
	OFFSET 0.000000 0.000000 0.000000
	CHANNELS 6 Xposition Yposition Zposition Xrotation Yrotation Zrotation
	JOINT Bone-20
	{
		OFFSET 0.000000 0.000000 2.000000
		CHANNELS 3 Xrotation Yrotation Zrotation
		JOINT Bone-60
		{
			OFFSET 0.000000 0.000000 -0.300000
			CHANNELS 3 Xrotation Yrotation Zrotation
			JOINT Bone-61
			{
				OFFSET 0.300000 0.000000 0.000000
				CHANNELS 3 Xrotation Yrotation Zrotation
				JOINT Bone-62
				{
					OFFSET 0.000000 0.000000 -0.700000
					CHANNELS 3 Xrotation Yrotation Zrotation
					JOINT Bone-63
					{
						OFFSET 0.000000 0.000000 -0.800000
						CHANNELS 3 Xrotation Yrotation Zrotation
						End Site
						{
							OFFSET 0.000000 -0.300000 0.000000
						}
					}
				}
			}
		}
		JOINT Bone-70
		{
			OFFSET 0.000000 0.000000 -0.300000
			CHANNELS 3 Xrotation Yrotation Zrotation
			JOINT Bone-71
			{
				OFFSET -0.300000 0.000000 0.000000
				CHANNELS 3 Xrotation Yrotation Zrotation
				JOINT Bone-72
				{
					OFFSET 0.000000 0.000000 -0.700000
					CHANNELS 3 Xrotation Yrotation Zrotation
					JOINT Bone-73
					{
						OFFSET 0.000000 0.000000 -0.800000
						CHANNELS 3 Xrotation Yrotation Zrotation
						End Site
						{
							OFFSET 0.000000 -0.300000 0.000000
						}
					}
				}
			}
		}
	}
	JOINT Bone-10
	{
		OFFSET 0.000000 0.000000 2.000000
		CHANNELS 3 Xrotation Yrotation Zrotation
		JOINT Bone-30
		{
			OFFSET 0.000000 0.000000 1.000000
			CHANNELS 3 Xrotation Yrotation Zrotation
			End Site
			{
				OFFSET 0.000000 0.000000 1.000000
			}
		}
		JOINT Bone-40
		{
			OFFSET 0.000000 0.000000 1.000000
			CHANNELS 3 Xrotation Yrotation Zrotation
			JOINT Bone-41
			{
				OFFSET 0.500000 0.000000 -0.200000
				CHANNELS 3 Xrotation Yrotation Zrotation
				JOINT Bone-42
				{
					OFFSET 0.500000 0.000000 0.000000
					CHANNELS 3 Xrotation Yrotation Zrotation
					JOINT Bone-43
					{
						OFFSET 0.600000 0.000000 0.000000
						CHANNELS 3 Xrotation Yrotation Zrotation
						End Site
						{
							OFFSET 0.000000 -0.300000 0.000000
						}
					}
				}
			}
		}
		JOINT Bone-50
		{
			OFFSET 0.000000 0.000000 1.000000
			CHANNELS 3 Xrotation Yrotation Zrotation
			JOINT Bone-51
			{
				OFFSET -0.500000 0.000000 -0.204061
				CHANNELS 3 Xrotation Yrotation Zrotation
				JOINT Bone-52
				{
					OFFSET -0.500000 0.000000 0.004061
					CHANNELS 3 Xrotation Yrotation Zrotation
					JOINT Bone-53
					{
						OFFSET -0.600000 0.000000 0.000000
						CHANNELS 3 Xrotation Yrotation Zrotation
						End Site
						{
							OFFSET 0.000000 -0.300000 0.000000
						}
					}
				}
			}
		}
	}
}
MOTION
Frames: 14
Frame Time: 0.050000
0.000000 0.000000 0.000000 -0.000000 0.000000 -0.000000 -0.000000 0.000000 -0.000000 -0.000000 0.000000 0.000000 -0.000000 0.000000 -0.000000 -0.000000 0.000000 -0.000000 -0.000000 0.000000 -0.000000 -0.000000 0.000000 0.000000 -0.000000 0.000000 -0.000000 -0.000000 -0.000000 -0.000000 -0.000000 0.000000 -0.000000 -0.000000 0.000000 -0.000000 -0.000000 0.000000 -0.000000 -0.000000 -0.000003 -0.000001 12.528840 77.619212 12.528881 -0.000004 0.000007 -112.619861 -11.421183 -0.000000 -0.000000 -0.000000 0.000000 0.000000 9.954626 -77.501849 -15.515010 0.000006 0.000009 112.619875 -11.421187 -0.000000 -0.000000 
0.000000 0.000000 0.000000 -0.000000 0.000000 -0.000000 -0.000000 0.000000 -0.000000 -0.000000 0.000000 0.000000 -0.000000 0.000000 -0.000000 -0.000000 0.000000 -0.000000 -0.000000 0.000000 -0.000000 -0.000000 0.000000 0.000000 -0.000000 0.000000 -0.000000 -0.000000 -0.000000 -0.000000 -0.000000 0.000000 -0.000000 -0.000000 0.000000 -1.604177 -0.000000 0.000000 0.962546 -0.000003 -0.000001 -0.000001 32.927297 69.451501 -18.112386 -0.000003 0.000007 -106.697971 -21.913827 0.000001 0.000000 -0.000002 -0.000001 -0.000001 31.845784 -69.642501 16.577298 0.000006 0.000008 106.697991 -21.913822 0.000001 0.000000 
0.000000 0.000000 0.000000 -0.000000 0.000000 -0.000000 -0.000000 0.000000 -0.000000 -0.000000 0.000000 0.000000 -0.000000 0.000000 -0.000000 -0.000000 0.000000 -0.000000 -0.000000 0.000000 -0.000000 -0.000000 0.000000 0.000000 -0.000000 0.000000 -0.000000 -0.000000 -0.000000 -0.000000 -0.000000 0.000000 -0.000000 -0.000000 0.000000 -5.953398 -0.000000 0.000000 3.574097 -0.000003 -0.000000 -0.000001 36.091891 43.094430 -50.980518 -0.000004 0.000007 -88.373038 -45.252735 0.000002 0.000001 -0.000000 0.000000 0.000001 36.388823 -43.374939 50.665479 0.000005 0.000009 88.373058 -45.252746 0.000001 0.000002 
0.000000 0.000000 0.000000 -0.000000 0.000000 -0.000000 -0.000000 0.000000 -0.000000 -0.000000 0.000000 0.000000 -0.000000 0.000000 -0.000000 -0.000000 0.000000 -0.000000 -0.000000 0.000000 -0.000000 -0.000000 0.000000 0.000000 -0.000000 0.000000 -0.000000 -0.000000 -0.000000 -0.000000 -0.000000 0.000000 -0.000000 -0.000000 0.000000 -12.328103 -0.000000 0.000000 7.415165 -0.000002 -0.000001 -0.000002 20.844317 15.693956 -78.240486 -0.000003 0.000005 -55.668115 -68.681760 0.000000 -0.000001 -0.000000 -0.000001 0.000002 21.636117 -15.811552 78.167041 0.000002 0.000002 55.668115 -68.681780 -0.000004 -0.000001 
0.000000 0.000000 0.000000 -0.000000 0.000000 -0.000000 -0.000000 0.000000 -0.000000 -0.000000 0.000000 0.000000 -0.000000 0.000000 -0.000000 -0.000000 0.000000 -0.000000 -0.000000 0.000000 -0.000000 -0.000000 0.000000 0.000000 -0.000000 0.000000 -0.000000 -0.000000 -0.000000 -0.000000 -0.000000 0.000000 -0.000000 -0.000000 0.000000 -19.963656 -0.000000 0.000000 12.056191 -0.000001 -0.000000 0.000002 5.755530 2.940423 -97.832727 -0.000002 0.000000 -17.733370 -84.378299 0.000006 -0.000000 -0.000002 -0.000001 0.000000 6.743299 -2.875729 97.808671 0.000002 0.000001 17.733367 -84.378320 0.000000 -0.000001 
0.000000 0.000000 0.000000 -0.000000 0.000000 -0.000000 -0.000000 0.000000 -0.000000 -0.000000 0.000000 0.000000 -0.000000 0.000000 -0.000000 -0.000000 0.000000 -0.000000 -0.000000 0.000000 -0.000000 -0.000000 0.000000 0.000000 -0.000000 0.000000 -0.000000 -0.000000 -0.000000 -0.000000 -0.000000 0.000000 -0.000000 -0.000000 0.000000 -28.072486 -0.000000 0.000000 17.061531 0.000002 -0.000001 0.000000 -0.000010 0.000006 -104.862795 -0.000000 0.000000 0.000002 -89.999989 -0.000000 -0.000000 0.000001 0.000000 0.000000 1.034550 0.134891 104.857945 0.000000 -0.000000 -0.000001 -90.000009 0.000000 -0.000000 
0.000000 0.000000 0.000000 -0.000000 0.000000 -0.000000 -0.000000 0.000000 -0.000000 -0.000000 0.000000 0.000000 -0.000000 0.000000 -0.000000 -0.000000 0.000000 -0.000000 -0.000000 0.000000 -0.000000 -0.000000 0.000000 0.000000 -0.000000 0.000000 -0.000000 -0.000000 -0.000000 -0.000000 -0.000000 0.000000 -0.000000 -0.000000 0.000000 -35.904655 -0.000000 0.000000 22.002169 -0.000002 -0.000001 -0.000003 -0.000011 0.000002 -102.590835 -0.000000 0.000000 0.000000 -89.427175 -2.382013 -2.358323 -0.000000 -0.000000 -0.000001 0.998968 0.080081 99.166881 0.000005 0.000003 54.948858 -90.000009 -0.000002 -0.000000 
0.000000 0.000000 0.000000 -0.000000 0.000000 -0.000000 -0.000000 0.000000 -0.000000 -0.000000 0.000000 0.000000 -0.000000 0.000000 -0.000000 -0.000000 0.000000 -0.000000 -0.000000 0.000000 -0.000000 -0.000000 0.000000 0.000000 -0.000000 0.000000 -0.000000 -0.000000 -0.000000 -0.000000 -0.000000 0.000000 -0.000000 -0.000000 0.000000 -42.810355 -0.000000 0.000000 26.470815 -0.000002 -0.000003 -0.000002 -0.000010 0.000005 -96.071112 0.000000 -0.000000 0.000003 -88.469514 -8.011746 -7.801201 -0.000000 0.000000 -0.000001 0.862585 -0.059408 82.121461 0.000006 0.000010 120.791103 -90.000009 0.000001 -0.000000 
0.000000 0.000000 0.000000 -0.000000 0.000000 -0.000000 -0.000000 0.000000 -0.000000 -0.000000 0.000000 0.000000 -0.000000 0.000000 -0.000000 -0.000000 0.000000 -0.000000 -0.000000 0.000000 -0.000000 -0.000000 0.000000 0.000000 -0.000000 0.000000 -0.000000 -0.000000 -0.000000 -0.000000 -0.000000 0.000000 -0.000000 -0.000000 0.000000 -48.264760 -0.000000 0.000000 30.090948 -0.000001 -0.000003 -0.000001 -0.000009 -0.000001 -85.352093 0.000000 0.000000 0.000002 -88.031153 -14.523062 -14.037366 0.000001 0.000000 0.000000 0.559268 -0.186040 53.201296 0.000004 0.000012 145.695148 -90.000009 0.000002 -0.000000 
0.000000 0.000000 0.000000 -0.000000 0.000000 -0.000000 -0.000000 0.000000 -0.000000 -0.000000 0.000000 0.000000 -0.000000 0.000000 -0.000000 -0.000000 0.000000 -0.000000 -0.000000 0.000000 -0.000000 -0.000000 0.000000 0.000000 -0.000000 0.000000 -0.000000 -0.000000 -0.000000 -0.000000 -0.000000 0.000000 -0.000000 -0.000000 0.000000 -51.839500 -0.000000 0.000000 32.513374 -0.000002 -0.000000 0.000000 -0.000009 0.000002 -70.596979 -0.000000 0.000000 -0.000002 -88.208867 -19.708787 -19.113465 -0.000000 -0.000003 0.000003 0.184076 -0.129623 19.695708 0.000003 0.000013 154.834077 -90.000009 0.000001 -0.000000 
0.000000 0.000000 0.000000 -0.000000 0.000000 -0.000000 -0.000000 0.000000 -0.000000 -0.000000 0.000000 0.000000 -0.000000 0.000000 -0.000000 -0.000000 0.000000 -0.000000 -0.000000 0.000000 -0.000000 -0.000000 0.000000 0.000000 -0.000000 0.000000 -0.000000 -0.000000 -0.000000 -0.000000 -0.000000 0.000000 -0.000000 -0.000000 0.000000 -53.130102 -0.000000 0.000000 33.398488 -0.000000 -0.000002 0.000002 -0.000005 0.000001 -53.130102 -0.000000 -0.000000 0.000000 -88.422208 -21.793923 -21.215496 -0.000001 -0.000002 -0.000001 -0.000003 -0.000002 -0.000002 0.000002 0.000013 157.380140 -90.000009 0.000000 -0.000000 
0.000000 0.000000 0.000000 -0.000000 0.000000 -0.000000 -0.000000 0.000000 -0.000000 -0.000000 0.000000 0.000000 -0.000000 0.000000 -0.000000 -0.000000 0.000000 -0.000000 -0.000000 0.000000 -0.000000 -0.000000 0.000000 0.000000 -0.000000 0.000000 -0.000000 -0.000000 -0.000000 -0.000000 -0.000000 0.000000 -0.000000 -0.000000 0.000000 -51.839507 -0.000000 0.000000 32.513367 -0.000001 -0.000002 -0.000004 1.331403 2.137136 -35.768669 -0.000000 0.000000 -4.810019 -86.989631 -21.717428 -20.629825 -0.000002 -0.000002 -0.000002 0.453006 -2.540507 -6.220319 0.000002 0.000013 156.939920 -88.537809 -0.000000 0.000000 
0.000000 0.000000 0.000000 -0.000000 0.000000 -0.000000 -0.000000 0.000000 -0.000000 -0.000000 0.000000 0.000000 -0.000000 0.000000 -0.000000 -0.000000 0.000000 -0.000000 -0.000000 0.000000 -0.000000 -0.000000 0.000000 0.000000 -0.000000 0.000000 -0.000000 -0.000000 -0.000000 -0.000000 -0.000000 0.000000 -0.000000 -0.000000 0.000000 -48.264760 -0.000000 0.000000 30.090945 -0.000001 -0.000003 -0.000001 3.974084 8.804203 -20.447505 -0.000002 0.000001 -17.733353 -82.904645 -21.424160 -18.971105 0.000001 0.000000 0.000000 1.358765 -9.552167 -11.130437 0.000003 0.000014 155.655230 -84.378320 -0.000000 0.000001 
0.000000 0.000000 0.000000 -0.000000 0.000000 -0.000000 -0.000000 0.000000 -0.000000 -0.000000 0.000000 0.000000 -0.000000 0.000000 -0.000000 -0.000000 0.000000 -0.000000 -0.000000 0.000000 -0.000000 -0.000000 0.000000 0.000000 -0.000000 0.000000 -0.000000 -0.000000 -0.000000 -0.000000 -0.000000 0.000000 -0.000000 -0.000000 0.000000 -42.810359 -0.000000 0.000000 26.470818 -0.000000 -0.000004 -0.000004 6.332263 19.180061 -8.183657 -0.000003 -0.000000 -35.904645 -76.334686 -20.719408 -16.353344 0.000002 -0.000001 0.000001 2.235627 -19.761515 -14.778704 0.000003 0.000010 153.482847 -77.709856 0.000000 -0.000000 
